<svg xmlns="http://www.w3.org/2000/svg" width="34.098" height="34" viewBox="0 0 34.098 34">
    <defs>
        <style>
            .cls-1{fill:#ededed;stroke:#ededed;stroke-linejoin:round}
        </style>
    </defs>
    <g id="ico_logout" transform="translate(-315.497 -152.5)">
        <g id="Forma_1" transform="translate(315.997 153)">
            <path id="Forma_1-2" d="M1.031 33A1.032 1.032 0 0 1 0 31.969V1.031A1.032 1.032 0 0 1 1.031 0h14.438a1.031 1.031 0 1 1 0 2.062H2.063v28.876h13.406a1.031 1.031 0 1 1 0 2.063zm23.1-8.53a1.048 1.048 0 0 1 0-1.472l5.363-5.44H8.253a1.042 1.042 0 0 1 0-2.083H29.49l-5.363-5.44a1.048 1.048 0 0 1 0-1.472 1.023 1.023 0 0 1 1.459 0L32.7 15.78a1.056 1.056 0 0 1 0 1.473l-7.115 7.217a1.023 1.023 0 0 1-1.459 0z" class="cls-1"/>
            <path id="Stroke_Effect" d="M1.031 33A1.032 1.032 0 0 1 0 31.969V1.031A1.032 1.032 0 0 1 1.031 0h14.438a1.031 1.031 0 1 1 0 2.062H2.063v28.876h13.406a1.031 1.031 0 1 1 0 2.063zm23.1-8.53a1.048 1.048 0 0 1 0-1.472l5.363-5.44H8.253a1.042 1.042 0 0 1 0-2.083H29.49l-5.363-5.44a1.048 1.048 0 0 1 0-1.472 1.023 1.023 0 0 1 1.459 0L32.7 15.78a1.056 1.056 0 0 1 0 1.473l-7.115 7.217a1.023 1.023 0 0 1-1.459 0z" class="cls-1"/>
        </g>
    </g>
</svg>
