<svg xmlns="http://www.w3.org/2000/svg" width="41" height="40">
    <path fill="#b6babf" fill-rule="evenodd" stroke="#1C92EB" d="M36.224 20.753l-7.12 7.218c-.403.407-1.056.407-1.459 0-.404-.407-.404-1.066 0-1.473l5.366-5.44H11.757c-.569 0-1.032-.466-1.032-1.042 0-.575.463-1.041 1.032-1.041h21.254l-5.366-5.44c-.404-.406-.404-1.066 0-1.473.402-.406 1.055-.407 1.459 0l7.122 7.218c.401.4.397 1.071-.002 1.473zM18.979 5.562H5.562v28.876h13.417c.57 0 1.032.461 1.032 1.031 0 .569-.462 1.031-1.032 1.031H4.529c-.569 0-1.032-.462-1.032-1.031V4.531c0-.569.463-1.031 1.032-1.031h14.45c.57 0 1.032.462 1.032 1.031s-.462 1.031-1.032 1.031z"/>
</svg>
